<svg width="42" height="40" viewBox="0 0 42 40" fill="none" xmlns="http://www.w3.org/2000/svg">
<g clip-path="url(#clip0_404_22)">
<path d="M21.2721 0.493652C10.0514 0.493652 0.954041 9.4474 0.954041 20.4937C0.954041 29.3299 6.77642 36.8274 14.849 39.4712C15.8649 39.6562 16.2383 39.0374 16.2383 38.5087C16.2383 38.0324 16.2192 36.4562 16.2103 34.7849C10.5568 35.9949 9.36443 32.4249 9.36443 32.4249C8.43996 30.1137 7.10913 29.4987 7.10913 29.4987C5.26527 28.2574 7.24882 28.2824 7.24882 28.2824C9.28824 28.4237 10.3626 30.3437 10.3626 30.3437C12.1747 33.4011 15.1157 32.5174 16.2751 32.0062C16.4567 30.7137 16.9837 29.8312 17.5653 29.3312C13.0522 28.8262 8.30789 27.1099 8.30789 19.4474C8.30789 17.2637 9.10157 15.4799 10.4019 14.0787C10.1911 13.5749 9.49523 11.5412 10.5988 8.78615C10.5988 8.78615 12.3055 8.24865 16.1875 10.8362C17.8078 10.3924 19.5463 10.1712 21.2733 10.1624C22.9991 10.1699 24.7388 10.3924 26.363 10.8362C30.2412 8.24865 31.9441 8.78615 31.9441 8.78615C33.0502 11.5412 32.3543 13.5749 32.1435 14.0787C33.4464 15.4787 34.235 17.2637 34.235 19.4474C34.235 27.1287 29.4818 28.8199 24.9572 29.3162C25.6862 29.9374 26.3351 31.1537 26.3351 33.0199C26.3351 35.6962 26.3109 37.8499 26.3109 38.5087C26.3109 39.0411 26.6767 39.6649 27.7065 39.4687C35.7753 36.8212 41.5901 29.3274 41.5901 20.4937C41.5901 9.4474 32.4927 0.493652 21.2721 0.493652Z" fill="#8892B0"/>
</g>
<defs>
<clipPath id="clip0_404_22">
<rect width="40.636" height="40" fill="white" transform="translate(0.954041)"/>
</clipPath>
</defs>
</svg>
