<svg width="41" height="40" viewBox="0 0 41 40" fill="none" xmlns="http://www.w3.org/2000/svg">
<g clip-path="url(#clip0_404_20)">
<path d="M36.8264 0H3.80963C1.71433 0 0 1.6875 0 3.75V36.25C0 38.3125 1.71433 40 3.80963 40H36.8264C38.9217 40 40.636 38.3125 40.636 36.25V3.75C40.636 1.6875 38.9217 0 36.8264 0ZM15.2385 32.5H10.159V15H15.2385V32.5ZM12.6988 12.5C11.2943 12.5 10.159 11.3825 10.159 10C10.159 8.6175 11.2943 7.5 12.6988 7.5C14.1032 7.5 15.2385 8.6175 15.2385 10C15.2385 11.3825 14.1032 12.5 12.6988 12.5ZM33.0168 32.5H27.9373V22.5C27.9373 21.1175 26.802 20 25.3975 20C23.993 20 22.8578 21.1175 22.8578 22.5V32.5H17.7783V15H22.8578V18.1012C23.9054 16.6875 25.508 15 27.3023 15C30.4618 15 33.0168 17.7975 33.0168 21.25V32.5Z" fill="#8892B0"/>
</g>
<defs>
<clipPath id="clip0_404_20">
<rect width="40.636" height="40" fill="white"/>
</clipPath>
</defs>
</svg>
