<svg width="76" height="76" viewBox="0 0 76 76" fill="none" xmlns="http://www.w3.org/2000/svg">
<path d="M29.8018 13.283L10.6526 36.3059C7.60351 39.9718 8.06835 45.4295 11.6908 48.496L34.5599 67.8552C38.1824 70.9217 43.5907 70.4358 46.6398 66.77L65.789 43.747C68.8381 40.0811 68.3732 34.6234 64.7507 31.5569L41.8817 12.1977C38.2592 9.13119 32.8508 9.61707 29.8018 13.283Z" stroke="#64FFDA" stroke-width="3"/>
<path d="M20.96 45.1891C20.6533 45.1891 20.3867 45.0727 20.16 44.8399C19.9333 44.6071 19.82 44.3333 19.82 44.0183V35.6788C19.82 35.3638 19.9333 35.09 20.16 34.8572C20.3867 34.6244 20.6533 34.508 20.96 34.508H22.08C22.3867 34.508 22.6533 34.6244 22.88 34.8572C23.1067 35.09 23.22 35.3638 23.22 35.6788V44.0183C23.22 44.3333 23.1067 44.6071 22.88 44.8399C22.6533 45.0727 22.3867 45.1891 22.08 45.1891H20.96ZM20.96 32.454C20.6533 32.454 20.3867 32.3376 20.16 32.1048C19.9333 31.8719 19.82 31.5981 19.82 31.2831V30.9545C19.82 30.6395 19.9333 30.3657 20.16 30.1329C20.3867 29.9001 20.6533 29.7837 20.96 29.7837H22.08C22.3867 29.7837 22.6533 29.9001 22.88 30.1329C23.1067 30.3657 23.22 30.6395 23.22 30.9545V31.2831C23.22 31.5981 23.1067 31.8719 22.88 32.1048C22.6533 32.3376 22.3867 32.454 22.08 32.454H20.96ZM31.2513 40.3004C29.6246 40.3004 28.8113 40.814 28.8113 41.841C28.8113 42.2107 28.9179 42.5052 29.1313 42.7242C29.3446 42.9296 29.6313 43.0323 29.9913 43.0323C30.6313 43.0323 31.1512 42.8269 31.5513 42.4161C31.9513 41.9917 32.1513 41.4302 32.1513 40.7318V40.4853C32.1513 40.3621 32.0913 40.3004 31.9712 40.3004H31.2513ZM29.0113 45.3945C28.0913 45.3945 27.3313 45.0933 26.7312 44.4907C26.1446 43.8745 25.8512 43.0803 25.8512 42.108C25.8512 39.6157 27.6513 38.3696 31.2513 38.3696H31.9712C32.0913 38.3696 32.1513 38.3149 32.1513 38.2053V38.1026C32.1513 37.5822 32.0179 37.2057 31.7513 36.9729C31.4979 36.7401 31.0646 36.6237 30.4513 36.6237C29.6379 36.6237 28.6646 36.7538 27.5312 37.014C27.2512 37.0687 26.9979 37.0071 26.7713 36.8291C26.5579 36.6511 26.4512 36.4183 26.4512 36.1307V36.0896C26.4512 35.7473 26.5512 35.4392 26.7513 35.1653C26.9646 34.8777 27.2313 34.7065 27.5512 34.6518C28.7246 34.419 29.7379 34.3026 30.5913 34.3026C32.3379 34.3026 33.5713 34.6244 34.2913 35.268C35.0246 35.9117 35.3913 36.9798 35.3913 38.4723V44.0183C35.3913 44.3333 35.2779 44.6071 35.0513 44.8399C34.8246 45.0727 34.5579 45.1891 34.2513 45.1891H33.5113C33.1913 45.1891 32.9179 45.0795 32.6913 44.8604C32.4646 44.6276 32.3446 44.3469 32.3313 44.0183V43.7923C32.3313 43.7787 32.3246 43.7718 32.3113 43.7718C32.2846 43.7718 32.2713 43.7787 32.2713 43.7923C31.4313 44.8604 30.3446 45.3945 29.0113 45.3945ZM42.3933 36.7675C41.1266 36.7675 40.4933 37.726 40.4933 39.6431C40.4933 40.6017 40.6599 41.3206 40.9933 41.7999C41.3399 42.2792 41.8066 42.5188 42.3933 42.5188C42.9133 42.5188 43.3599 42.3408 43.7333 41.9848C44.1066 41.615 44.2933 41.1906 44.2933 40.7113V38.7188C44.2933 38.1711 44.1066 37.7123 43.7333 37.3426C43.3599 36.9592 42.9133 36.7675 42.3933 36.7675ZM41.3333 44.9837C40.1733 44.9837 39.2133 44.5113 38.4533 43.5664C37.7066 42.6079 37.3333 41.3001 37.3333 39.6431C37.3333 37.9452 37.6933 36.6306 38.4133 35.6994C39.1333 34.7682 40.1066 34.3026 41.3333 34.3026C42.5066 34.3026 43.5133 34.8092 44.3533 35.8226L44.3933 35.8637C44.4066 35.8637 44.4133 35.8568 44.4133 35.8432V35.6788C44.4266 35.3502 44.5466 35.0763 44.7733 34.8572C44.9999 34.6244 45.2733 34.508 45.5933 34.508H46.3333C46.6399 34.508 46.9066 34.6244 47.1333 34.8572C47.3599 35.09 47.4733 35.3638 47.4733 35.6788V44.2648C47.4733 46.1134 46.9733 47.5171 45.9733 48.4756C44.9866 49.4341 43.5533 49.9134 41.6733 49.9134C40.8733 49.9134 40.1533 49.8587 39.5133 49.7491C39.1933 49.6944 38.9266 49.53 38.7133 49.2561C38.4999 48.9822 38.3933 48.6741 38.3933 48.3318V47.921C38.3933 47.6471 38.5066 47.428 38.7333 47.2637C38.9599 47.0994 39.2066 47.0514 39.4733 47.1199C40.1933 47.2979 40.8799 47.3869 41.5333 47.3869C42.4933 47.3869 43.1933 47.1473 43.6333 46.668C44.0733 46.2025 44.2933 45.415 44.2933 44.3059V43.7307C44.2933 43.7171 44.2866 43.7102 44.2733 43.7102C44.2599 43.7102 44.2466 43.7171 44.2333 43.7307C43.4733 44.566 42.5066 44.9837 41.3333 44.9837ZM56.1408 37.3837C55.8208 36.8771 55.3274 36.6237 54.6608 36.6237C53.9941 36.6237 53.4941 36.8771 53.1608 37.3837C52.8408 37.8903 52.6808 38.7119 52.6808 39.8486C52.6808 40.9852 52.8408 41.8068 53.1608 42.3134C53.4941 42.8201 53.9941 43.0734 54.6608 43.0734C55.3274 43.0734 55.8208 42.8201 56.1408 42.3134C56.4741 41.8068 56.6408 40.9852 56.6408 39.8486C56.6408 38.7119 56.4741 37.8903 56.1408 37.3837ZM58.5208 43.9361C57.6008 44.9084 56.3141 45.3945 54.6608 45.3945C53.0074 45.3945 51.7208 44.9084 50.8008 43.9361C49.8808 42.9638 49.4208 41.6014 49.4208 39.8486C49.4208 38.0957 49.8808 36.7333 50.8008 35.761C51.7208 34.7887 53.0074 34.3026 54.6608 34.3026C56.3141 34.3026 57.6008 34.7887 58.5208 35.761C59.4408 36.7333 59.9008 38.0957 59.9008 39.8486C59.9008 41.6014 59.4408 42.9638 58.5208 43.9361Z" fill="#64FFDA"/>
</svg>
